<mxfile host="app.diagrams.net" agent="Mozilla/5.0 (Windows NT 10.0; Win64; x64; rv:137.0) Gecko/20100101 Firefox/137.0" version="26.2.12">
  <diagram name="Page-1" id="FgVe_lwdEr8WEldymb8Y">
    <mxGraphModel dx="2959" dy="987" grid="1" gridSize="10" guides="1" tooltips="1" connect="1" arrows="1" fold="1" page="1" pageScale="1" pageWidth="1600" pageHeight="1200" math="0" shadow="0">
      <root>
        <mxCell id="0" />
        <mxCell id="1" parent="0" />
        <mxCell id="rFaXixH81TGhSfxiYi5m-1" value="" style="rounded=1;whiteSpace=wrap;html=1;arcSize=7;" vertex="1" parent="1">
          <mxGeometry x="-220" y="50" width="930" height="570" as="geometry" />
        </mxCell>
        <mxCell id="rFaXixH81TGhSfxiYi5m-2" value="" style="rounded=1;whiteSpace=wrap;html=1;fillColor=#d5e8d4;strokeColor=#82b366;" vertex="1" parent="1">
          <mxGeometry x="-110" y="180" width="310" height="340" as="geometry" />
        </mxCell>
        <mxCell id="rFaXixH81TGhSfxiYi5m-3" value="" style="rounded=1;whiteSpace=wrap;html=1;fillColor=#dae8fc;strokeColor=#6c8ebf;" vertex="1" parent="1">
          <mxGeometry x="310" y="180" width="320" height="340" as="geometry" />
        </mxCell>
        <mxCell id="rFaXixH81TGhSfxiYi5m-4" value="" style="image;aspect=fixed;html=1;points=[];align=center;fontSize=12;image=img/lib/azure2/networking/Subnet.svg;" vertex="1" parent="1">
          <mxGeometry x="-80" y="210" width="50.1" height="30" as="geometry" />
        </mxCell>
        <mxCell id="rFaXixH81TGhSfxiYi5m-6" value="" style="image;aspect=fixed;html=1;points=[];align=center;fontSize=12;image=img/lib/azure2/networking/Subnet.svg;" vertex="1" parent="1">
          <mxGeometry x="340" y="210" width="50.1" height="30" as="geometry" />
        </mxCell>
        <mxCell id="rFaXixH81TGhSfxiYi5m-7" value="" style="verticalLabelPosition=bottom;html=1;verticalAlign=top;align=center;strokeColor=none;fillColor=#00BEF2;shape=mxgraph.azure.virtual_network;pointerEvents=1;" vertex="1" parent="1">
          <mxGeometry x="-190" y="100" width="60" height="30" as="geometry" />
        </mxCell>
        <mxCell id="rFaXixH81TGhSfxiYi5m-24" style="edgeStyle=orthogonalEdgeStyle;rounded=0;orthogonalLoop=1;jettySize=auto;html=1;" edge="1" parent="1" source="rFaXixH81TGhSfxiYi5m-8" target="rFaXixH81TGhSfxiYi5m-9">
          <mxGeometry relative="1" as="geometry" />
        </mxCell>
        <mxCell id="rFaXixH81TGhSfxiYi5m-8" value="&lt;div&gt;Virtual Machine&lt;/div&gt;&lt;div&gt;(Mattermost Application Server)&lt;/div&gt;" style="shape=parallelogram;perimeter=parallelogramPerimeter;whiteSpace=wrap;html=1;fixedSize=1;fillColor=#fff2cc;strokeColor=#d6b656;" vertex="1" parent="1">
          <mxGeometry x="-60" y="320" width="210" height="110" as="geometry" />
        </mxCell>
        <mxCell id="rFaXixH81TGhSfxiYi5m-9" value="&lt;div&gt;Virtual Machine&lt;/div&gt;&lt;div&gt;(MySQL DatabaseServer)&lt;/div&gt;" style="shape=parallelogram;perimeter=parallelogramPerimeter;whiteSpace=wrap;html=1;fixedSize=1;fillColor=#fff2cc;strokeColor=#d6b656;" vertex="1" parent="1">
          <mxGeometry x="370" y="320" width="210" height="110" as="geometry" />
        </mxCell>
        <mxCell id="rFaXixH81TGhSfxiYi5m-10" value="NSG" style="rounded=1;whiteSpace=wrap;html=1;fillColor=#60a917;fontColor=#ffffff;strokeColor=#2D7600;" vertex="1" parent="1">
          <mxGeometry x="-110" y="160" width="70" height="40" as="geometry" />
        </mxCell>
        <mxCell id="rFaXixH81TGhSfxiYi5m-13" value="NSG" style="rounded=1;whiteSpace=wrap;html=1;fillColor=#60a917;fontColor=#ffffff;strokeColor=#2D7600;" vertex="1" parent="1">
          <mxGeometry x="310" y="160" width="70" height="40" as="geometry" />
        </mxCell>
        <mxCell id="rFaXixH81TGhSfxiYi5m-15" value="&lt;div align=&quot;left&quot;&gt;Private Subnet&lt;/div&gt;&lt;div align=&quot;left&quot;&gt;10.0.0.128 - 10.0.0.255&lt;/div&gt;" style="text;html=1;align=left;verticalAlign=middle;whiteSpace=wrap;rounded=0;" vertex="1" parent="1">
          <mxGeometry x="400" y="210" width="210" height="30" as="geometry" />
        </mxCell>
        <mxCell id="rFaXixH81TGhSfxiYi5m-16" value="&lt;div align=&quot;left&quot;&gt;Public Subnet&lt;/div&gt;&lt;div align=&quot;left&quot;&gt;10.0.0.0 - 10.0.0.127&lt;/div&gt;" style="text;html=1;align=left;verticalAlign=middle;whiteSpace=wrap;rounded=0;" vertex="1" parent="1">
          <mxGeometry x="-20" y="200" width="210" height="30" as="geometry" />
        </mxCell>
        <mxCell id="rFaXixH81TGhSfxiYi5m-18" value="NAT gateway" style="sketch=0;outlineConnect=0;fontColor=#232F3E;gradientColor=none;strokeColor=#232F3E;fillColor=#ffffff;dashed=0;verticalLabelPosition=bottom;verticalAlign=top;align=center;html=1;fontSize=12;fontStyle=0;aspect=fixed;shape=mxgraph.aws4.resourceIcon;resIcon=mxgraph.aws4.nat_gateway;" vertex="1" parent="1">
          <mxGeometry x="270" y="270" width="60" height="60" as="geometry" />
        </mxCell>
        <mxCell id="rFaXixH81TGhSfxiYi5m-19" value="" style="image;aspect=fixed;html=1;points=[];align=center;fontSize=12;image=img/lib/azure2/networking/Public_IP_Addresses.svg;" vertex="1" parent="1">
          <mxGeometry x="-60" y="300" width="50" height="40" as="geometry" />
        </mxCell>
        <mxCell id="rFaXixH81TGhSfxiYi5m-20" value="&lt;div align=&quot;left&quot;&gt;Public IP Address&lt;/div&gt;&lt;div align=&quot;left&quot;&gt;&lt;br&gt;&lt;/div&gt;" style="text;html=1;align=left;verticalAlign=middle;whiteSpace=wrap;rounded=0;" vertex="1" parent="1">
          <mxGeometry x="-10" y="305" width="210" height="30" as="geometry" />
        </mxCell>
        <mxCell id="rFaXixH81TGhSfxiYi5m-22" style="edgeStyle=orthogonalEdgeStyle;rounded=0;orthogonalLoop=1;jettySize=auto;html=1;" edge="1" parent="1" source="rFaXixH81TGhSfxiYi5m-21" target="rFaXixH81TGhSfxiYi5m-19">
          <mxGeometry relative="1" as="geometry" />
        </mxCell>
        <mxCell id="rFaXixH81TGhSfxiYi5m-21" value="" style="shape=actor;whiteSpace=wrap;html=1;" vertex="1" parent="1">
          <mxGeometry x="-410" y="200" width="110" height="240" as="geometry" />
        </mxCell>
        <mxCell id="rFaXixH81TGhSfxiYi5m-23" value="Virtual Network" style="text;html=1;align=left;verticalAlign=middle;whiteSpace=wrap;rounded=0;" vertex="1" parent="1">
          <mxGeometry x="-120" y="100" width="210" height="30" as="geometry" />
        </mxCell>
        <mxCell id="rFaXixH81TGhSfxiYi5m-25" value=":8065" style="text;html=1;align=center;verticalAlign=middle;whiteSpace=wrap;rounded=0;" vertex="1" parent="1">
          <mxGeometry x="-170" y="290" width="60" height="30" as="geometry" />
        </mxCell>
        <mxCell id="rFaXixH81TGhSfxiYi5m-26" value=":3306" style="text;html=1;align=center;verticalAlign=middle;whiteSpace=wrap;rounded=0;" vertex="1" parent="1">
          <mxGeometry x="300" y="370" width="60" height="30" as="geometry" />
        </mxCell>
      </root>
    </mxGraphModel>
  </diagram>
</mxfile>
